<svg width="45" height="28" fill="none" xmlns="http://www.w3.org/2000/svg"><path d="M36.772 3.92C35.564 1.68 32.744 0 27.105 0H15.262l-1.37 4.96c-3.544.8-6.686 2-9.103 3.36-1.047.64-2.095 1.28-2.98 2.16-.887.88-1.693 2.16-1.773 3.36-.161 1.6.241 2.72.805 3.68.403.64.806 1.12 1.209 1.6 1.37 1.52 3.061 2.64 4.914 3.6.564.32 1.209.64 1.853.88L7.61 28h14.823c8.862 0 12.97-3.68 12.97-8.56 0-2.88-1.772-4.72-4.35-5.6 4.028-.96 6.365-3.6 6.365-7.2 0-.32 0-.56-.08-.8-.968 0-1.854 0-2.66.08-1.852.08-3.866.16-5.8.32-.403 0-.806.08-1.289.16 1.37.24 1.933.96 1.933 1.92 0 1.76-1.53 2.8-4.35 2.88h-5.317l.967-3.76c-2.578.56-5.076 1.28-7.573 2.32-.322.08-.564.24-.886.4L9.139 21.92s-.08.24-.16.56c-.323-.24-.645-.56-.968-.88-1.127-1.04-2.094-2.24-2.739-3.68-.322-.8-.564-1.44-.483-2.56.161-1.76 1.45-3.04 2.578-4 1.289-1.04 2.74-1.76 4.19-2.4 4.833-2 9.747-2.88 15.548-3.44 1.933-.16 3.867-.24 5.8-.32 3.625-.16 7.895 0 11.36.48.241 0 .724.16.724 0 .081-.16-.322-.24-.483-.32-2.417-.72-5.075-1.2-7.734-1.44ZM18.404 16.56h5.478c2.336 0 3.545.72 3.545 2.16 0 1.76-1.692 2.96-4.431 2.96h-6.042l1.45-5.12Z" fill="#fff"/></svg>